<?xml version="1.0" encoding="UTF-8"?>
<svg width="201px" height="49px" viewBox="0 0 201 49" version="1.1" xmlns="http://www.w3.org/2000/svg" xmlns:xlink="http://www.w3.org/1999/xlink">
    <!-- Generator: Sketch 52.2 (67145) - http://www.bohemiancoding.com/sketch -->
    <title>softmag-logo-2018</title>
    <desc>Created with Sketch.</desc>
    <defs>
        <linearGradient x1="88.8189907%" y1="50%" x2="7.68441853%" y2="55.9366909%" id="linearGradient-1">
            <stop stop-color="#FF9804" offset="0%"></stop>
            <stop stop-color="#F76B1C" offset="53.9288295%"></stop>
            <stop stop-color="#C94900" offset="100%"></stop>
        </linearGradient>
        <path d="M15.2053772,8.59674517 L27.3436853,6.97512169 C30.5024892,6.55311967 33.4053059,8.77173592 33.8273079,11.9305398 C33.8950607,12.4376884 33.8950607,12.9515956 33.8273079,13.4587443 L32.2056844,25.5970523 C31.9155483,27.7688029 31.636593,28.5341619 31.1757487,29.3150087 C30.7149044,30.0958555 30.0958555,30.7149044 29.3150087,31.1757487 C28.5341619,31.636593 27.7688029,31.9155483 25.5970523,32.2056844 L13.4587443,33.8273079 C10.2999404,34.2493099 7.39712371,32.0306937 6.97512169,28.8718898 C6.90736891,28.3647412 6.90736891,27.8508339 6.97512169,27.3436853 L8.59674517,15.2053772 C8.8868813,13.0336267 9.16583653,12.2682677 9.62668087,11.4874209 C10.0875252,10.7065741 10.7065741,10.0875252 11.4874209,9.62668087 C12.2682677,9.16583653 13.0336267,8.8868813 15.2053772,8.59674517 Z" id="path-2"></path>
        <linearGradient x1="100%" y1="37.1474804%" x2="6.0492328%" y2="21.1229338%" id="linearGradient-4">
            <stop stop-color="#FF9804" stop-opacity="0.347571332" offset="0%"></stop>
            <stop stop-color="#FF9804" offset="55.558046%"></stop>
            <stop stop-color="#F76B1C" offset="100%"></stop>
        </linearGradient>
    </defs>
    <g id="softmag-logo-2018" stroke="none" stroke-width="1" fill="none" fill-rule="evenodd">
        <g id="Group-4" transform="translate(-2.885167, -2.770335)">
            <path d="M58.8112536,38.5996938 C57.1904225,38.5996938 55.6824567,38.4099158 54.287311,38.0303541 C52.8921653,37.6507924 51.7534972,37.1122332 50.8712727,36.4146603 C50.56352,36.1889749 50.3429672,35.9479056 50.2096077,35.691445 C50.0762481,35.4349844 50.0095694,35.1118488 50.0095694,34.7220287 C50.0095694,34.2091075 50.1685726,33.7577436 50.4865837,33.3679234 C50.8045949,32.9781033 51.1687635,32.7831962 51.5791005,32.7831962 C51.8047858,32.7831962 52.0253386,32.8191001 52.2407656,32.8909091 C52.4561925,32.9627181 52.7177784,33.0909464 53.0255311,33.2755981 C53.9077556,33.829553 54.8002252,34.2347547 55.7029665,34.4912153 C56.6057079,34.7476759 57.6007601,34.8759043 58.6881531,34.8759043 C60.0422651,34.8759043 61.0783505,34.6502224 61.7964402,34.1988517 C62.5145299,33.747481 62.8735694,33.1012099 62.8735694,32.2600191 C62.8735694,31.6239968 62.5401756,31.1110833 61.873378,30.7212632 C61.2065804,30.331443 60.0217501,29.9621453 58.3188517,29.6133589 C56.4107847,29.2235387 54.8874315,28.7516583 53.7487464,28.1977033 C52.6100613,27.6437484 51.7791414,26.9564443 51.2559617,26.1357703 C50.7327821,25.3150964 50.4711962,24.3200441 50.4711962,23.1505837 C50.4711962,21.8580222 50.845623,20.6937085 51.594488,19.6576077 C52.343353,18.6215068 53.3794384,17.8111034 54.7027751,17.2263732 C56.0261119,16.641643 57.5186903,16.3492823 59.180555,16.3492823 C62.0939476,16.3492823 64.4943829,17.0776195 66.381933,18.5343158 C66.6896857,18.780518 66.9102386,19.0318456 67.0435981,19.2883062 C67.1769576,19.5447668 67.2436364,19.8576441 67.2436364,20.2269474 C67.2436364,20.7398686 67.0846332,21.1912325 66.766622,21.5810526 C66.4486109,21.9708728 66.0844422,22.1657799 65.6741053,22.1657799 C65.4484199,22.1657799 65.2381254,22.1350051 65.0432153,22.0734545 C64.8483052,22.011904 64.5764611,21.8785465 64.2276746,21.673378 C63.3864838,21.1399399 62.6119844,20.7398674 61.9041531,20.4731483 C61.1963218,20.2064293 60.2987231,20.0730718 59.2113301,20.0730718 C57.9598024,20.0730718 56.9750084,20.3141411 56.2569187,20.7962871 C55.5388289,21.278433 55.1797895,21.9400915 55.1797895,22.7812823 C55.1797895,23.2736867 55.3182761,23.6788884 55.5952536,23.9968995 C55.872231,24.3149107 56.3338532,24.5970131 56.980134,24.8432153 C57.6264147,25.0894175 58.5445299,25.3458743 59.7345072,25.6125933 C62.5247986,26.2280988 64.5302905,27.0179856 65.7510431,27.9822775 C66.9717956,28.9465694 67.5821627,30.2698863 67.5821627,31.9522679 C67.5821627,33.2653463 67.2179941,34.4245309 66.4896459,35.4298565 C65.7612978,36.4351821 64.7354707,37.2148106 63.412134,37.7687656 C62.0887972,38.3227205 60.5551858,38.5996938 58.8112536,38.5996938 Z M80.8932568,38.5996938 C78.7389876,38.5996938 76.8668533,38.1432007 75.2767975,37.230201 C73.6867417,36.3172012 72.4608783,35.0246591 71.5991707,33.3525359 C70.737463,31.6804127 70.3066156,29.7159539 70.3066156,27.4591005 C70.3066156,25.2022471 70.737463,23.2377883 71.5991707,21.5656651 C72.4608783,19.8935419 73.6867417,18.6061289 75.2767975,17.7033876 C76.8668533,16.8006462 78.7389876,16.3492823 80.8932568,16.3492823 C83.0475259,16.3492823 84.9196603,16.8006462 86.5097161,17.7033876 C88.0997719,18.6061289 89.3256353,19.8935419 90.1873429,21.5656651 C91.0490506,23.2377883 91.4798979,25.2022471 91.4798979,27.4591005 C91.4798979,29.7159539 91.0490506,31.6804127 90.1873429,33.3525359 C89.3256353,35.0246591 88.0997719,36.3172012 86.5097161,37.230201 C84.9196603,38.1432007 83.0475259,38.5996938 80.8932568,38.5996938 Z M80.8932568,34.8759043 C82.6987395,34.8759043 84.11951,34.2398915 85.1556109,32.9678469 C86.1917117,31.6958023 86.7097544,29.8595718 86.7097544,27.4591005 C86.7097544,25.0586291 86.1968409,23.2275278 85.1709984,21.9657416 C84.145156,20.7039554 82.7192563,20.0730718 80.8932568,20.0730718 C79.0672572,20.0730718 77.6464867,20.7039554 76.6309027,21.9657416 C75.6153187,23.2275278 75.1075343,25.0586291 75.1075343,27.4591005 C75.1075343,29.8595718 75.6204478,31.6958023 76.6462903,32.9678469 C77.6721327,34.2398915 79.0877741,34.8759043 80.8932568,34.8759043 Z M97.4357384,38.5073684 C96.7176487,38.5073684 96.1380564,38.2868156 95.6969442,37.8457033 C95.2558319,37.4045911 95.0352791,36.8249988 95.0352791,36.1069091 L95.0352791,18.8728421 C95.0352791,18.1547524 95.2301863,17.6008058 95.6200064,17.2109856 C96.0098265,16.8211655 96.5637731,16.6262584 97.2818629,16.6262584 L107.868504,16.6262584 C108.648144,16.6262584 109.222607,16.7801324 109.591911,17.0878852 C109.961214,17.3956379 110.145863,17.8777766 110.145863,18.5343158 C110.145863,19.1703381 109.961214,19.6422186 109.591911,19.9499713 C109.222607,20.257724 108.648144,20.4115981 107.868504,20.4115981 L99.7746475,20.4115981 L99.7746475,25.3971675 L107.253002,25.3971675 C108.032642,25.3971675 108.607105,25.5510415 108.976408,25.8587943 C109.345712,26.166547 109.53036,26.6486857 109.53036,27.3052249 C109.53036,27.9412472 109.345712,28.4131276 108.976408,28.7208804 C108.607105,29.0286331 108.032642,29.1825072 107.253002,29.1825072 L99.7746475,29.1825072 L99.7746475,36.1069091 C99.7746475,36.8455157 99.564353,37.4302371 99.1437576,37.8610909 C98.7231622,38.2919447 98.1538282,38.5073684 97.4357384,38.5073684 Z M122.456766,38.4765933 C121.738676,38.4765933 121.159084,38.2611696 120.717971,37.8303158 C120.276859,37.399462 120.056306,36.8249988 120.056306,36.1069091 L120.056306,20.5346986 L115.070737,20.5346986 C113.55249,20.5346986 112.793378,19.8781692 112.793378,18.5650909 C112.793378,17.2725294 113.55249,16.6262584 115.070737,16.6262584 L129.842794,16.6262584 C131.361041,16.6262584 132.120153,17.2725294 132.120153,18.5650909 C132.120153,19.8781692 131.361041,20.5346986 129.842794,20.5346986 L124.857225,20.5346986 L124.857225,36.1069091 C124.857225,36.8249988 124.641801,37.399462 124.210947,37.8303158 C123.780094,38.2611696 123.195372,38.4765933 122.456766,38.4765933 Z M154.302175,16.4723828 C154.979231,16.4723828 155.528049,16.6929356 155.948644,17.1340478 C156.36924,17.5751601 156.579534,18.1444941 156.579534,18.842067 L156.579534,36.3223349 C156.579534,36.9993909 156.384627,37.532821 155.994807,37.9226411 C155.604987,38.3124613 155.092073,38.5073684 154.456051,38.5073684 C153.840546,38.5073684 153.33789,38.3124613 152.94807,37.9226411 C152.55825,37.532821 152.363343,36.9993909 152.363343,36.3223349 L152.363343,25.4587177 L147.993276,33.6756746 C147.70604,34.2091127 147.393163,34.598927 147.054635,34.8451292 C146.716107,35.0913314 146.310905,35.2144306 145.839018,35.2144306 C145.387647,35.2144306 144.987574,35.0913314 144.638788,34.8451292 C144.290001,34.598927 143.971995,34.2091127 143.684759,33.6756746 L139.314692,25.6125933 L139.314692,36.3223349 C139.314692,36.9788741 139.119785,37.507175 138.729965,37.9072536 C138.340145,38.3073321 137.827231,38.5073684 137.191209,38.5073684 C136.575703,38.5073684 136.073048,38.3124613 135.683228,37.9226411 C135.293408,37.532821 135.098501,36.9993909 135.098501,36.3223349 L135.098501,18.842067 C135.098501,18.1444941 135.308795,17.5751601 135.729391,17.1340478 C136.149986,16.6929356 136.698804,16.4723828 137.37586,16.4723828 C138.360668,16.4723828 139.109522,16.9955546 139.622443,18.0419139 L145.869793,29.8903349 L152.086367,18.0419139 C152.640322,16.9955546 153.378917,16.4723828 154.302175,16.4723828 Z M182.023719,35.3990813 C182.187854,35.7683846 182.26992,36.0966493 182.26992,36.3838852 C182.26992,36.9583569 182.039109,37.4456248 181.57748,37.8457033 C181.115851,38.2457819 180.58755,38.4458182 179.992561,38.4458182 C179.602741,38.4458182 179.233444,38.3381063 178.884657,38.1226794 C178.535871,37.9072525 178.269156,37.584117 178.084504,37.1532632 L176.453423,33.521799 L166.020657,33.521799 L164.389576,37.1532632 C164.204924,37.584117 163.943338,37.9072525 163.60481,38.1226794 C163.266282,38.3381063 162.891855,38.4458182 162.481518,38.4458182 C161.88653,38.4458182 161.3531,38.2457819 160.881212,37.8457033 C160.409325,37.4456248 160.173384,36.9583569 160.173384,36.3838852 C160.173384,36.0966493 160.255451,35.7683846 160.419585,35.3990813 L168.728868,17.9495885 C168.954553,17.4571841 169.293076,17.0827573 169.744447,16.8262967 C170.195817,16.569836 170.677956,16.4416077 171.190877,16.4416077 C171.724315,16.4416077 172.216712,16.5749652 172.668083,16.8416842 C173.119454,17.1084032 173.468235,17.477701 173.714437,17.9495885 L182.023719,35.3990813 Z M167.651738,29.8903349 L174.822341,29.8903349 L171.252427,21.8888038 L167.651738,29.8903349 Z M200.96666,26.3511962 C201.541132,26.3511962 201.997625,26.5101994 202.336153,26.8282105 C202.674681,27.1462217 202.843943,27.5821982 202.843943,28.1361531 L202.843943,34.1373014 C202.843943,34.9579754 202.777264,35.5939882 202.643904,36.0453589 C202.510545,36.4967295 202.279734,36.855769 201.951464,37.122488 C201.623195,37.3892071 201.130798,37.614889 200.474258,37.7995407 C199.674101,38.0457429 198.755986,38.24065 197.719885,38.3842679 C196.683784,38.5278859 195.704119,38.5996938 194.780861,38.5996938 C192.482974,38.5996938 190.49287,38.153459 188.810488,37.2609761 C187.128106,36.3684931 185.835564,35.0862093 184.932823,33.4140861 C184.030082,31.7419629 183.578718,29.7569876 183.578718,27.4591005 C183.578718,25.2022471 184.024953,23.2377883 184.917435,21.5656651 C185.809918,19.8935419 187.087073,18.6061289 188.748938,17.7033876 C190.410803,16.8006462 192.349616,16.3492823 194.565435,16.3492823 C197.417277,16.3492823 199.77668,17.0878778 201.643713,18.5650909 C201.951466,18.8112931 202.166889,19.0574916 202.28999,19.3036938 C202.413092,19.549896 202.474641,19.8576441 202.474641,20.2269474 C202.474641,20.7603854 202.325896,21.2168785 202.028402,21.5964402 C201.730908,21.9760019 201.376997,22.1657799 200.96666,22.1657799 C200.699941,22.1657799 200.458872,22.1247468 200.243445,22.0426794 C200.028018,21.960612 199.766432,21.8272545 199.458679,21.6426029 C198.596972,21.1091648 197.807085,20.7296088 197.088995,20.5039234 C196.370906,20.2782381 195.581019,20.1653971 194.719311,20.1653971 C190.533874,20.1653971 188.441187,22.5966073 188.441187,27.4591005 C188.441187,29.9621561 188.984875,31.8291613 190.072268,33.0601722 C191.159661,34.2911832 192.800984,34.9066794 194.996287,34.9066794 C196.186264,34.9066794 197.365965,34.7528054 198.535426,34.4450526 L198.535426,29.6749091 L195.704115,29.6749091 C195.109126,29.6749091 194.647504,29.5312933 194.319234,29.2440574 C193.990965,28.9568215 193.826833,28.5464907 193.826833,28.0130526 C193.826833,27.4796146 193.990965,27.0692837 194.319234,26.7820478 C194.647504,26.494812 195.109126,26.3511962 195.704115,26.3511962 L200.96666,26.3511962 Z" id="Softmag-Copy" fill="#2F2F2F"></path>
            <g id="Group-2">
                <g id="Rectangle-Copy-2" transform="translate(0.000000, 13.464115)">
                    <g id="Group-3">
                        <mask id="mask-3" fill="white">
                            <use xlink:href="#path-2"></use>
                        </mask>
                        <use id="Mask" fill="url(#linearGradient-1)" fill-rule="nonzero" transform="translate(20.401215, 20.401215) rotate(45.000000) translate(-20.401215, -20.401215) " xlink:href="#path-2"></use>
                    </g>
                </g>
                <path d="M15.153883,9.32502353 L28.9733929,7.59418805 C32.1355558,7.19814046 35.0200553,9.44051992 35.4161029,12.6026828 C35.4798153,13.1113822 35.4754508,13.6263037 35.4031245,14.13385 L33.6713051,26.2868078 C33.362304,28.4552082 33.0768705,29.2178474 32.6095235,29.9944461 C32.1421765,30.7710448 31.5181407,31.3845907 30.7337315,31.8387064 C29.9493223,32.292822 29.1819543,32.565287 27.0086276,32.837487 L13.1891176,34.5683225 C10.0269548,34.9643701 7.1424553,32.7219906 6.7464077,29.5598278 C6.68269524,29.0511284 6.68705979,28.5362069 6.7593861,28.0286605 L8.49120542,15.8757028 C8.80020656,13.7073024 9.08564007,12.9446632 9.55298706,12.1680645 C10.020334,11.3914658 10.6443699,10.7779198 11.4287791,10.3238042 C12.2131882,9.86968852 12.9805562,9.59722356 15.153883,9.32502353 Z" id="Rectangle-Copy" fill="url(#linearGradient-4)" fill-rule="nonzero" transform="translate(21.081255, 21.081255) rotate(45.000000) translate(-21.081255, -21.081255) "></path>
            </g>
        </g>
    </g>
</svg>